<svg id="Layer_1" enable-background="new 0 0 56 56" height="512" viewBox="0 0 56 56" width="512" xmlns="http://www.w3.org/2000/svg"><path d="m12.03 4h2v2h-2z"/><path d="m4.03 4h2v2h-2z"/><path d="m20.03 4h2v2h-2z"/><path d="m53.53 0h-51c-1.378 0-2.5 1.122-2.5 2.5v7.5h56v-7.5c0-1.378-1.122-2.5-2.5-2.5zm-45.5 7c0 .552-.448 1-1 1h-4c-.552 0-1-.448-1-1v-4c0-.552.448-1 1-1h4c.552 0 1 .448 1 1zm8 0c0 .552-.448 1-1 1h-4c-.552 0-1-.448-1-1v-4c0-.552.448-1 1-1h4c.552 0 1 .448 1 1zm8 0c0 .552-.448 1-1 1h-4c-.552 0-1-.448-1-1v-4c0-.552.448-1 1-1h4c.552 0 1 .448 1 1z"/><path d="m.03 12v41.5c0 1.379 1.122 2.5 2.5 2.5h51c1.378 0 2.5-1.122 2.5-2.5v-41.5zm52 41c0 .552-.448 1-1 1h-46c-.552 0-1-.448-1-1v-12c0-.552.448-1 1-1h46c.552 0 1 .448 1 1zm0-16c0 .552-.448 1-1 1h-46c-.552 0-1-.448-1-1v-22c0-.552.448-1 1-1h46c.552 0 1 .448 1 1z"/><path d="m34.043 21.589-8.252 10.361 3.681 4.05h16.439z"/><path d="m6.03 52h44v-10h-44zm41-2h-30c-.552 0-1-.448-1-1s.448-1 1-1h30c.552 0 1 .448 1 1s-.448 1-1 1zm-4-6h4c.552 0 1 .448 1 1s-.448 1-1 1h-4c-.552 0-1-.448-1-1s.448-1 1-1zm-34 0h30c.552 0 1 .448 1 1s-.448 1-1 1h-30c-.552 0-1-.448-1-1s.448-1 1-1zm0 4h4c.552 0 1 .448 1 1s-.448 1-1 1h-4c-.552 0-1-.448-1-1s.448-1 1-1z"/><circle cx="12.03" cy="22" r="2"/><path d="m11.291 36h15.479l-7.74-8.513z"/><path d="m6.03 36h2.558l9.703-10.673c.379-.417 1.101-.417 1.479 0l4.658 5.124 8.82-11.074c.188-.236.472-.375.774-.377.296-.005.588.131.78.364l13.7 16.636h1.528v-20h-44zm6-18c2.206 0 4 1.794 4 4s-1.794 4-4 4-4-1.794-4-4 1.794-4 4-4z"/></svg>